# AST/ASF file generated using VICON BodyLanguage
# -----------------------------------------------
:version 1.10
:name VICON
:units
  mass 1.0
  length 0.45
  angle deg
:documentation
   .ast/.asf automatically generated from VICON data using
   VICON BodyBuilder and BodyLanguage model FoxedUp or BRILLIANT.MOD
:root
   order TX TY TZ RX RY RZ
   axis XYZ
   position 0 0 0  
   orientation 0 0 0 
:bonedata
  begin
     id 1 
     name lhipjoint
     direction 0.682418 -0.694059 0.22932 
     length 2.25561 
     axis 0 0 0  XYZ
  end
  begin
     id 2 
     name lfemur
     direction 0.34202 -0.939693 0  
     length 6.96448  
     axis 0 0 20  XYZ
    dof rx ry rz
    limits (-160.0 20.0)
           (-70.0 70.0)
           (-60.0 70.0)
  end
  begin
     id 3 
     name ltibia
     direction 0.34202 -0.939693 0   
     length 6.88553   
     axis 0 0 20   XYZ
    dof rx
    limits (-10.0 170.0)
  end
  begin
     id 4 
     name lfoot
     direction 0.0723587 -0.198804 0.977364   
     length 1.88518   
     axis -90 7.62852e-016 20   XYZ
    dof rx rz
    limits (-45.0 90.0)
           (-70.0 20.0)
  end
  begin
     id 5 
     name ltoes
     direction 1.53558e-011 -4.21962e-011 1   
     length 0.952124   
     axis -90 7.62852e-016 20   XYZ
    dof rx
    limits (-90.0 20.0)
  end
  begin
     id 6 
     name rhipjoint
     direction -0.657603 -0.71533 0.236348   
     length 2.18854  
     axis 0 0 0  XYZ 
  end
  begin
     id 7 
     name rfemur
     direction -0.34202 -0.939693 0   
     length 6.86686   
     axis 0 0 -20   XYZ
    dof rx ry rz
    limits (-160.0 20.0)
           (-70.0 70.0)
           (-70.0 60.0)
  end
  begin
     id 8 
     name rtibia
     direction -0.34202 -0.939693 0   
     length 6.59503   
     axis 0 0 -20   XYZ
    dof rx
    limits (-10.0 170.0)
 end
 begin
     id 9 
     name rfoot
     direction -0.101977 -0.280179 0.954516   
     length 1.93723  
     axis -90 -7.62852e-016 -20   XYZ
    dof rx rz
    limits (-45.0 90.0)
           (-20.0 70.0)
  end
  begin
     id 10 
     name rtoes
     direction -1.53564e-011 -4.21897e-011 1   
     length 0.970315   
     axis -90 -7.62852e-016 -20   XYZ
    dof rx
    limits (-90.0 20.0)
  end
  begin
     id 11 
     name lowerback
     direction -0.0339559 0.999421 -0.00235966   
     length 1.88543   
     axis 0 0 0   XYZ
    dof rx ry rz
    limits (-20.0 45.0)
           (-30.0 30.0)
           (-30.0 30.0)
  end
  begin
     id 12 
     name upperback
     direction 0.00401003 0.999739 0.0224689   
     length 1.8856   
     axis 0 0 0   XYZ
    dof rx ry rz
    limits (-20.0 45.0)
           (-30.0 30.0)
           (-30.0 30.0)
  end
  begin
     id 13 
     name thorax
     direction 0.0198619 0.999546 0.0226536   
     length 1.88352   
     axis 0 0 0   XYZ
    dof rx ry rz
    limits (-20.0 45.0)
           (-30.0 30.0)
           (-30.0 30.0)
  end
  begin
     id 14 
     name lowerneck
     direction -0.0461848 0.998632 0.0245198   
     length 1.34895   
     axis 0 0 0   XYZ
    dof rx ry rz
    limits (-20.0 45.0)
           (-30.0 30.0)
           (-30.0 30.0)
  end
  begin
     id 15 
     name upperneck
     direction -0.0180627 0.994724 -0.100984   
     length 1.35214   
     axis 0 0 0   XYZ
    dof rx ry rz
    limits (-20.0 45.0)
           (-30.0 30.0)
           (-30.0 30.0)
  end
  begin
     id 16
     name head
     direction -0.00374772 0.999293 -0.037403  
     length 1.3568  
     axis 0 0 0   XYZ
    dof rx ry rz
    limits (-20.0 45.0)
           (-30.0 30.0)
           (-30.0 30.0)
  end
  begin
     id 17 
     name lclavicle
     direction 0.971773 0.191119 0.138311  
     length 2.84954  
     axis 0 0 0   XYZ
    dof ry rz
    limits (-20.0 10.0)
           (0.0 20.0)
  end
  begin
     id 18 
     name lhumerus
     direction 1 -4.4897e-011 -2.43761e-027   
     length 4.40919   
     axis 180 -30 -90   XYZ
    dof rx ry rz
    limits (-60.0 90.0)
           (-90.0 90.0)
           (-90.0 90.0)
  end
  begin
     id 19
     name lradius
     direction 1 -4.4896e-011 -9.1621e-027   
     length 3.03857   
     axis 180 -30 -90   XYZ
    dof rx
    limits (-10.0 170.0)
  end
  begin
     id 20
     name lwrist
     direction 1 -4.4896e-011 -1.41363e-026   
     length 1.51928   
     axis 1.07133e-014 90 90   XYZ
    dof ry
    limits (-180.0 0.0)
 end
  begin
     id 21 
     name lhand
     direction 1 -4.48978e-011 -2.82725e-026   
     length 0.523208   
     axis 1.80403e-014 90 90   XYZ
    dof rx rz
    limits (-90.0 90.0)
           (-45.0 45.0)
  end
  begin
     id 22 
     name lfingers
     direction 1 -4.48977e-011 -5.6545e-026   
     length 0.421824   
     axis 3.60806e-014 90 90   XYZ
    dof rx
    limits (0.0 90.0)
  end
  begin
     id 23
     name lthumb
     direction 0.707107 -6.34962e-011 0.707107   
     length 0.605657   
     axis -90 45 2.85299e-015   XYZ
    dof rx rz
    limits (-45.0 45.0)
           (-45.0 45.0)
  end
  begin
     id 24 
     name rclavicle
     direction -0.957247 0.24311 0.156766   
     length 3.12406  
     axis 0 0 0   XYZ 
    dof ry rz
    limits (-10.0 20.0)
           (-20.0 0.0)
  end
  begin
     id 25 
     name rhumerus
     direction -1 -4.48964e-011 -1.70632e-027  
     length 4.61969   
     axis 180 30 90   XYZ
    dof rx ry rz
    limits (-90.0 60.0)
           (-90.0 90.0)
           (-90.0 90.0)
  end
  begin
     id 26 
     name rradius
     direction -1 -4.48966e-011 -6.60395e-027   
     length 3.09382   
     axis 180 30 90   XYZ
    dof rx
    limits (-10.0 170.0)
  end
  begin
     id 27 
     name rwrist
     direction -1 -4.48963e-011 -1.41363e-026   
     length 1.54691   
     axis 1.07133e-014 -90 -90   XYZ
    dof ry
    limits (-180.0 0.0)
  end
  begin
     id 28
     name rhand
     direction -1 -4.49013e-011 -2.82725e-026   
     length 0.500896   
     axis 1.80403e-014 -90 -90   XYZ
    dof rx rz
    limits (-90.0 90.0)
           (-45.0 45.0)
  end
  begin
     id 29
     name rfingers
     direction -1 -4.48902e-011 -5.6545e-026   
     length 0.403835   
     axis 3.60806e-014 -90 -90   XYZ
    dof rx
    limits (0.0 90.0)
  end
  begin
     id 30
     name rthumb
     direction -0.707107 -6.34953e-011 0.707107   
     length 0.579829   
     axis -90 -45 -2.85299e-015   XYZ
    dof rx rz
    limits (-45.0 45.0)
           (-45.0 45.0)
  end
:hierarchy
  begin
    root lhipjoint rhipjoint lowerback
    lhipjoint lfemur
    lfemur ltibia
    ltibia lfoot
    lfoot ltoes
    rhipjoint rfemur
    rfemur rtibia
    rtibia rfoot
    rfoot rtoes
    lowerback upperback
    upperback thorax
    thorax lowerneck lclavicle rclavicle
    lowerneck upperneck
    upperneck head
    lclavicle lhumerus
    lhumerus lradius
    lradius lwrist
    lwrist lhand lthumb
    lhand lfingers
    rclavicle rhumerus
    rhumerus rradius
    rradius rwrist
    rwrist rhand rthumb
    rhand rfingers
  end

#!OML:ASF E:\madness\Project 1\Capture day 1\Session 1\Female1.ASF
:FULLY-SPECIFIED
:DEGREES
255
root 18.6003 16.3053 -1.11583 -178.072 -65.5709 186.302
lowerback -1.96011 2.82617 -1.84787
upperback -3.11595 3.72804 0.148452
thorax -2.22979 1.88418 1.18028
lowerneck 8.6206 20.3746 5.97895
upperneck -5.75104 27.0596 -13.9432
head -0.331696 13.8873 -5.11968
rclavicle 2.46058e-014 1.27222e-014
rhumerus -61.3743 0.554982 -63.9747
rradius 69.3879
rwrist -0.801089
rhand -9.31264 -44.5083
rfingers 7.12502
rthumb 16.6455 -73.8145
lclavicle 2.46058e-014 1.27222e-014
lhumerus -45.478 -4.89173 59.435
lradius 64.3474
lwrist -13.961
lhand -33.3895 -25.2174
lfingers 7.12502
lthumb -6.59024 4.66003
rfemur -9.47097 13.0913 10.3927
rtibia 34.1375
rfoot -10.435 -9.57813
rtoes 10.8836
lfemur -22.3074 -2.61755 -15.1136
ltibia 27.7968
lfoot -4.65973 23.6681
ltoes 12.6509
256
root 18.6559 16.3035 -1.1412 -178.128 -65.5704 186.251
lowerback -2.0586 2.9444 -1.80609
upperback -3.29053 3.87966 0.126809
thorax -2.35587 1.95842 1.13386
lowerneck 8.90936 20.4694 5.99846
upperneck -5.44249 27.2274 -13.6232
head -0.309437 13.9627 -5.04681
rclavicle -7.71533e-014 3.97569e-016
rhumerus -62.4697 0.232952 -62.9275
rradius 69.4488
rwrist -0.762344
rhand -10.4739 -45.6165
rfingers 7.12502
rthumb 15.5273 -75.013
lclavicle -7.71533e-014 3.97569e-016
lhumerus -46.0139 -4.82241 59.6454
lradius 65.1671
lwrist -13.6098
lhand -33.3402 -25.2183
lfingers 7.12502
lthumb -6.5426 4.66063
rfemur -8.34026 13.0517 10.1065
rtibia 33.8693
rfoot -10.0576 -9.75394
rtoes 10.8806
lfemur -22.334 -2.56517 -14.9673
ltibia 27.7721
lfoot -4.27017 23.5616
ltoes 12.7343
257
root 18.7116 16.3013 -1.16875 -178.365 -65.5862 186.313
lowerback -2.18607 3.04591 -1.77178
upperback -3.38304 4.01336 0.168184
thorax -2.38528 2.02432 1.16064
lowerneck 8.78746 20.521 5.9091
upperneck -4.95205 27.3335 -13.2038
head -0.20527 13.99 -4.88423
rclavicle -3.90187e-014 -5.96354e-015
rhumerus -63.4218 -0.0670953 -61.8058
rradius 69.369
rwrist -0.735797
rhand -8.79447 -45.5375
rfingers 7.12502
rthumb 17.1443 -74.8011
lclavicle -3.90187e-014 -5.96354e-015
lhumerus -46.498 -4.6594 59.9572
lradius 65.8791
lwrist -13.2952
lhand -33.1016 -25.1817
lfingers 7.12502
lthumb -6.31228 4.70428
rfemur -7.10955 13.0348 9.9347
rtibia 33.5194
rfoot -9.64551 -10.086
rtoes 9.60654
lfemur -22.2751 -2.52856 -14.7613
ltibia 27.7511
lfoot -4.16875 23.4682
ltoes 12.9319
258
root 18.7728 16.2972 -1.19773 -178.808 -65.7425 186.642
lowerback -2.46383 3.09655 -1.64013
upperback -3.36813 4.08417 0.237791
thorax -2.21244 2.05573 1.17566
lowerneck 8.26516 20.6133 5.82163
upperneck -4.00753 27.5179 -12.7804
head 0.101931 14.0358 -4.63834
rclavicle -9.33822e-015 2.38542e-015
rhumerus -64.0807 -0.562665 -60.6987
rradius 69.1141
rwrist -0.59358
rhand -8.4358 -45.6156
rfingers 7.12502
rthumb 17.4895 -74.8488
lclavicle -9.33822e-015 2.38542e-015
lhumerus -46.9252 -4.3802 60.2944
lradius 66.6552
lwrist -13.0922
lhand -32.8648 -24.9214
lfingers 7.12502
lthumb -6.08371 4.97124
rfemur -5.89369 13.0148 9.93841
rtibia 33.0942
rfoot -9.29464 -10.502
rtoes 7.36926
lfemur -22.3455 -2.45177 -14.4266
ltibia 27.7478
lfoot -3.90441 23.2081
ltoes 12.5954
259
root 18.8349 16.2903 -1.22815 -179.201 -65.9201 186.841
lowerback -2.64864 3.14931 -1.54608
upperback -3.35921 4.15595 0.286805
thorax -2.09909 2.08892 1.18519
lowerneck 8.45095 20.5291 5.95666
upperneck -3.63873 27.4505 -12.6624
head 0.179277 13.9952 -4.62049
rclavicle -4.50372e-014 -3.97569e-015
rhumerus -64.7378 -1.08157 -59.602
rradius 68.8284
rwrist -0.524354
rhand -9.11544 -44.811
rfingers 7.12502
rthumb 16.8353 -74.1012
lclavicle -4.50372e-014 -3.97569e-015
lhumerus -47.6026 -4.17995 60.6628
lradius 67.6869
lwrist -12.8567
lhand -32.6785 -24.9341
lfingers 7.12502
lthumb -5.9038 4.96361
rfemur -4.61226 13.0193 9.89553
rtibia 32.6236
rfoot -8.89419 -10.7991
rtoes 6.25899
lfemur -22.3683 -2.39133 -14.1645
ltibia 27.7742
lfoot -3.49845 22.9605
ltoes 11.9354
260
root 18.8979 16.2803 -1.2593 -179.183 -66.0871 186.625
lowerback -2.75346 3.23713 -1.64149
upperback -3.47504 4.27071 0.304462
thorax -2.17262 2.14814 1.25852
lowerneck 8.19355 20.5096 5.85112
upperneck -2.9833 27.4603 -12.272
head 0.346478 13.9695 -4.443
rclavicle 2.06798e-014 5.1684e-015
rhumerus -65.5822 -1.48926 -58.4454
rradius 68.5618
rwrist -0.44461
rhand -9.62263 -48.1565
rfingers 7.12502
rthumb 16.347 -77.4875
lclavicle 2.06798e-014 5.1684e-015
lhumerus -48.4242 -4.17772 61.1634
lradius 68.7052
lwrist -12.6342
lhand -32.549 -25.5108
lfingers 7.12502
lthumb -5.77881 4.39045
rfemur -3.36505 13.0242 9.66127
rtibia 32.1089
rfoot -8.49971 -10.9522
rtoes 6.08937
lfemur -22.4509 -2.44045 -14.0677
ltibia 27.8472
lfoot -3.11804 22.8448
ltoes 10.8378
261
root 18.9606 16.2692 -1.29121 -179.032 -66.2823 186.365
lowerback -3.00701 3.30554 -1.76357
upperback -3.57928 4.36143 0.316948
thorax -2.15237 2.19494 1.35118
lowerneck 8.3664 20.2237 5.89228
upperneck -2.51497 27.1145 -12.1281
head 0.415211 13.7871 -4.4188
rclavicle 6.7388e-014 2.22639e-014
rhumerus -66.3644 -1.79975 -57.417
rradius 68.3937
rwrist -0.257101
rhand -9.76038 -49.5056
rfingers 7.12502
rthumb 16.2144 -78.8475
lclavicle 6.7388e-014 2.22639e-014
lhumerus -49.1217 -4.04845 61.6794
lradius 69.5979
lwrist -12.5477
lhand -32.568 -25.5784
lfingers 7.12502
lthumb -5.79709 4.32231
rfemur -2.19691 13.0627 9.4284
rtibia 31.5463
rfoot -8.13783 -10.9362
rtoes 4.58014
lfemur -22.6645 -2.48519 -13.9746
ltibia 27.9862
lfoot -2.87559 22.6221
ltoes 10.1162
262
root 19.0247 16.2553 -1.32508 -179.308 -66.572 186.44
lowerback -3.22084 3.3199 -1.73012
upperback -3.55797 4.38296 0.345778
thorax -2.01143 2.20376 1.37674
lowerneck 7.61892 20.1273 5.6753
upperneck -1.5506 27.0269 -11.2626
head 0.739034 13.6915 -4.48196
rclavicle 7.32832e-014 9.93923e-015
rhumerus -66.975 -2.0776 -56.7287
rradius 68.3768
rwrist -0.536988
rhand -10.6354 -49.0289
rfingers 7.12502
rthumb 15.3717 -78.4375
lclavicle 7.32832e-014 9.93923e-015
lhumerus -49.6712 -3.78289 62.1203
lradius 70.3578
lwrist -12.5
lhand -32.5128 -25.0642
lfingers 7.12502
lthumb -5.74381 4.83798
rfemur -0.867826 13.1597 9.44337
rtibia 30.955
rfoot -7.82896 -10.8279
rtoes 2.94321
lfemur -22.8208 -2.43535 -13.7506
ltibia 28.2036
lfoot -2.74567 22.17
ltoes 9.94107
263
root 19.0984 16.2359 -1.35998 -179.709 -67.0061 186.656
lowerback -3.25657 3.28636 -1.67548
upperback -3.64271 4.33472 0.39466
thorax -2.0768 2.1788 1.39515
lowerneck 8.10809 19.886 5.89413
upperneck -1.59834 26.7276 -11.3449
head 0.658158 13.5563 -4.6161
rclavicle 3.30604e-014 1.27222e-014
rhumerus -67.7386 -2.22657 -56.1664
rradius 68.5214
rwrist -1.20544
rhand -11.7381 -47.8098
rfingers 7.12502
rthumb 14.3094 -77.2967
lclavicle 3.30604e-014 1.27222e-014
lhumerus -50.3893 -3.59388 62.5749
lradius 71.053
lwrist -12.3875
lhand -32.15 -24.9324
lfingers 7.12502
lthumb -5.39353 4.97896
rfemur 0.476203 13.2317 9.59936
rtibia 30.3432
rfoot -7.52671 -10.749
rtoes 2.74375
lfemur -23.116 -2.42392 -13.4722
ltibia 28.5209
lfoot -2.28576 21.6265
ltoes 8.93364
